<svg xmlns="http://www.w3.org/2000/svg" xmlns:xlink="http://www.w3.org/1999/xlink" width="212.055" height="45.27" viewBox="0 0 212.055 45.27">
  <defs>
    <clipPath id="clip-path">
      <rect id="Rechteck_1" data-name="Rechteck 1" width="212.055" height="45.27" transform="translate(114.237 10.078)" fill="#fff" stroke="#696969" stroke-width="1"/>
    </clipPath>
  </defs>
  <g id="logo" transform="translate(-114.237 -10.078)" clip-path="url(#clip-path)">
    <g id="Ebene_1" transform="translate(113.835 13.405)">
      <g id="Gruppe_1" data-name="Gruppe 1">
        <path id="Pfad_1" data-name="Pfad 1" d="M216.453,20.5c-.13,0-.651-.315-.651-.5,0-.063,0-.126.065-.126h.065c.13,0,.391.44.521.566Zm5.277,26.358c0,.063-.261.44-.456.44-.13,0-.326-.063-.326-.189,0-.063.2-.126.326-.126.2,0,.391-.189.456-.126ZM210.264,20.313c0-.063-.326-.063-.456-.063s-.13.189-.13.252a.17.17,0,0,0,.2.189c.13,0,.391-.315.391-.377m1.042-.252c0-.252-.456-.315-.652-.315a.23.23,0,0,0-.13.063l-.065.063c0,.126.521.377.456.315l.13.126a.5.5,0,0,0,.261-.252m4.039,29.314c.065.126-.717.44-1.368.44a.956.956,0,0,1-.912-.377v-.063c0-.063.065-.063.13-.063.261,0,.782.126,1.108.126a8.119,8.119,0,0,1,.912-.189c.065,0,.13,0,.13.126m5.342-1.761c0,.44-2.02,1.384-3.518,1.7.652-.692.782-.755,1.042-.755h.326a2.321,2.321,0,0,0,.586-.063c.652-.126,1.108-1.132,1.433-1.132a.683.683,0,0,1,.13.252Zm3.518-19.878a8.352,8.352,0,0,0-3.323-6.165,7.776,7.776,0,0,0-4.691-1.95,3.584,3.584,0,0,0-1.629.315V19.81c0-.377-.261-.44-.586-.44H213.2a.649.649,0,0,1-.586.5c-.391,0-.847-.44-1.108-.44-.13,0-.2.126-.261.44,0,0,.326.189.391.377v.063c0,.126-.13.189-.326.189h-.847a.929.929,0,0,1-.782.377l-.782-.063a.852.852,0,0,0-.847.5c-1.042.818-.586,2.516-2.085,2.7-.456,1.447-1.433,2.642-1.433,4.215a2.96,2.96,0,0,0,.065.755c.782,4.089,5.147,6.857,8.73,8.492,1.3,1.258,3.388,1.447,3.974,3.208l.065.252a5.677,5.677,0,0,1,.326,1.51,1.544,1.544,0,0,1-.717,1.321,4.19,4.19,0,0,1-2.15.755,2.417,2.417,0,0,1-.717-.126,5.819,5.819,0,0,1-3.649-3.9,4.017,4.017,0,0,0-2.476-.692l-1.694.063a8.3,8.3,0,0,1-1.3-.126,1.247,1.247,0,0,0-1.108,1.258,1.036,1.036,0,0,0,.065.44c.652,2.139,1.238,4.907,3.258,6.165h.065l.586-.315c.065,0,.065.063.065.126v.063c0,1.7,2.215,1.447,3.258,2.328a21.07,21.07,0,0,0,2.8.252,11.729,11.729,0,0,0,8.34-3.02,19.182,19.182,0,0,1,1.368-2.831,1.439,1.439,0,0,0,.13-.5l-.065-.944a.743.743,0,0,1,.2-.629,13.678,13.678,0,0,0-.521-3.774c-1.108-3.145-3.974-4.089-6.19-5.976a22.329,22.329,0,0,1-5.6-3.271l-.2-.189-.2-.126a1.784,1.784,0,0,1-.13-.566c0-.566.326-1.2.326-1.824a1.629,1.629,0,0,0-.2-.755,3.56,3.56,0,0,1,3-1.887,2.37,2.37,0,0,1,.912.189c1.694.566,3.648,1.95,3.648,3.963v.126c.717.063,1.433.126,2.15.126.521,0,1.173-.063,1.889-.126h1.173v-.315Zm-42.349-6.794h-.065c0,.315-.2.377-.391.377a1.211,1.211,0,0,1-.717-.252V21c0-.126.391-.252.717-.252.261,0,.456.063.456.189m14.334.44a2.312,2.312,0,0,1-1.3.252h-.456a.6.6,0,0,1,.586-.44Zm2.411.5-.326-.5-.717.377a.4.4,0,0,1-.326-.377l.065-.252a12.672,12.672,0,0,0-3.453-.44c-.261.126-.326.189-.326.315l.326.566c0,.126-.065.189-.261.315-.065.063-.13.126-.2.126-.261,0-.2-.566-.456-.692l-.652.315a.226.226,0,0,0-.065.189c0,.252.326.44.391.629a7.468,7.468,0,0,0-.13,1.7,35.374,35.374,0,0,0,.391,4.026v6.983a54.333,54.333,0,0,1-.521,8.555c-1.042,1.95-3.127,2.013-5.082,2.013a4.091,4.091,0,0,1-2.541-3.649v-12.9c0-1.824,0-3.586.065-5.473a11.377,11.377,0,0,0,.261-1.573,1.022,1.022,0,0,0-.326-.818,1.238,1.238,0,0,1-.586.252c-.13-.063-.13-.126-.13-.252a1.734,1.734,0,0,1,.261-.692,1.676,1.676,0,0,0-1.238-.315,1.576,1.576,0,0,1-.782-.126c-.782.5-2.215-.189-2.28.881l-.847.063V21.7c0,.252,0,.5.261.566a.6.6,0,0,1,.326.566l-.326,1.321c.391.189.521.44.521.629,0,.5-.782,1.069-.782,1.761,0,.063.065.126.065.252v.252c0,.692-.326,1.447-.326,2.2a1.949,1.949,0,0,0,.521,1.384,2.4,2.4,0,0,0-.261,1.132,6.055,6.055,0,0,0,.717,2.328,12.1,12.1,0,0,0-.391,1.636,1.181,1.181,0,0,0,.261.755v5.913a4.6,4.6,0,0,0-.065.944,6.633,6.633,0,0,0,.2,1.636c0,2.013,1.694,2.957,2.541,4.592l2.671.5a1.555,1.555,0,0,0,1.108.44c.521,0,1.042-.189,1.629-.189a2.066,2.066,0,0,1,.847.189c.391-.063.391-.44.391-.881.261-.252.456-.566.782-.566a1.125,1.125,0,0,1,.326.126l-.2.566h.13c.652,0,.977-.566,1.5-1.069v-.5c0-.126,0-.189.13-.189.391,0,.782-.44,1.108-.44a.5.5,0,0,1,.261.126,1.187,1.187,0,0,1,.065.5l-.065.944a1.673,1.673,0,0,0,.521,1.258,2.387,2.387,0,0,0,.717.252.36.36,0,0,0,.326-.189l-.261-.252v-.126c0-.063,0-.126.065-.126h.2c.065,0,.13,0,.2.126.065.063.13.063.13.126s-.065.126-.13.189l1.629.189a2.6,2.6,0,0,1,1.564-.629,2.094,2.094,0,0,0,.652-1.7,8.234,8.234,0,0,0-.261-1.824c-.13-3.145-.2-6.291-.2-9.5-.13-4.97.065-9.939.391-15.035m-32.055,27.93h0c-.2.063-.521-.063-.521-.189,0-.063.13-.063.2-.063.2,0,.261.126.326.252m.782-36.863a.323.323,0,0,1,.13.252c0,.126-.2.252-.326.252s-.2-.126-.2-.252a.411.411,0,0,1,.326-.315.063.063,0,0,1,.065.063M164.07,47.991c-.261,0-.521-.5-.521-.755,0-.063.13-.126.2-.126.13,0,.391.881.326.881ZM173,22.074c.13,0,.2.126.2.315,0,.252-.13.629-.261.629a1.712,1.712,0,0,1-.261-.755c0-.189,0-.252.13-.252.065,0,.2,0,.2.063m.782,0a1.559,1.559,0,0,0-1.759-1.321l-2.215.189a1.914,1.914,0,0,1-1.955-1.132l.391-6.605c-.065-.629-.782-.692-1.238-.944-.652,1.321-2.085,1.2-3.127,1.824-.586.315-.456,1.258-1.108,1.258-.065,0-.13-.063-.261-.063a7.712,7.712,0,0,1,.261,2.139v1.006a6.414,6.414,0,0,0,.2,1.95,1.55,1.55,0,0,1-1.629.944l-1.889-.189-.391.063c-.261.5-1.108.818-1.108,1.321a.838.838,0,0,0,.326.629,3.353,3.353,0,0,0-.2,1.006l4.561,2.579v6.857a9.841,9.841,0,0,1,.065,1.384c0,2.39-.586,4.907-.586,7.612,0,4.781,2.28,8.241,7.3,8.241,1.108,0,3.453,0,3.453-.629-.13-.315-1.108-.126-1.108-.44,0-.126.261-.189.521-.189.391,0,.977.189,1.108.629a2.039,2.039,0,0,0,.2-.944c0-1.95-.782-3.837-2.02-3.837l-1.955.189c-1.889,0-2.28-2.453-2.28-3.9,0-1.51.326-3.082.391-4.4a3.167,3.167,0,0,1-.326-1.51c0-1.258.521-2.39.521-3.586a5.322,5.322,0,0,0-.13-1.006,4.524,4.524,0,0,0,.2-1.636V28.239c0-1.132.261-3.145,2.28-3.145l2.02.566h.2c1.173-.818,1.043-2.328,1.3-3.586M150.91,24.968c-.326,0-.521-.5-.521-.818,0-.126,0-.252.13-.315h.065c.326,0,.521.5.521.818,0,.189-.065.315-.2.315m-13.812-3.9a1.96,1.96,0,0,1-.586.126,2.181,2.181,0,0,1-.847-.189v-.126a.235.235,0,0,1,.261-.252c.2,0,.586.189.912.189l.261-.063a.138.138,0,0,1,.13.126c0,.063-.065.189-.13.189m8.47-.818c0,.189-.391.315-.586.315-.261,0-.521.189-.717.189a.138.138,0,0,1-.13-.126c-.065-.126.521-.692.977-.692a.46.46,0,0,1,.456.315Zm-7.493,29.063a.226.226,0,0,1,.065.189c0,.252-.391.44-.652.44h-.065a3.606,3.606,0,0,1-.652-.189c.391-.126.586-.692.912-.692a.48.48,0,0,1,.391.252m-4.756-22.269c.065-.126.2.315.2.818,0,.566-.13,1.2-.652,1.321a8.373,8.373,0,0,1,.456-2.139M147.978,21c-.652,0-.977-.315-1.433-.315a.853.853,0,0,0-.391.063.57.57,0,0,1-.2-.315c0-.126.13-.252.261-.377h.2a2.547,2.547,0,0,1,1.564.692V21Zm4.952,6.857a2.23,2.23,0,0,1-.326-1.321l.065-1.2a1.981,1.981,0,0,0-.847-1.824v-.189c0-1.636-2.15-1.887-2.932-3.334a4.339,4.339,0,0,0-1.3-.189l-1.5.063a1.865,1.865,0,0,1-.586-.063,6.528,6.528,0,0,0-1.5-.189c-2.28,0-3.909,1.321-5.929,1.7-.586-.126-.2-.944-.586-1.069-.847-.063-1.824-.252-2.671-.252a3.24,3.24,0,0,0-2.085.566,12.836,12.836,0,0,0-.13,1.636,2.435,2.435,0,0,0,.326,1.384v.189c0,.566-.261,1.069-.261,1.51a1.026,1.026,0,0,0,.261.692,5.562,5.562,0,0,0-.521,2.768c0,1.824.261,3.837.261,5.221,0,.692-.065,1.2-.261,1.321.13,2.768.261,5.1.261,7.675v1.258a4.7,4.7,0,0,1,.13.944l-.326,2.894A1.988,1.988,0,0,0,133.579,50a2.54,2.54,0,0,0,.977.315.755.755,0,0,0,.521-.189,5.481,5.481,0,0,0,1.759.377,2.384,2.384,0,0,0,1.564-.566l.326-1.51a.927.927,0,0,0-.261-.692V39a2.591,2.591,0,0,1-.13-.692l.2-1.887a1.891,1.891,0,0,0-.326-1.132,18.371,18.371,0,0,0,.13-1.887V29.812a5.9,5.9,0,0,1,1.629-4.466c.782-.629,1.694-1.51,2.8-1.51a1.705,1.705,0,0,1,.782.126h.065c.391,0,.391-.629.717-.629a1.124,1.124,0,0,1,.326.126.34.34,0,0,1,.13.315l-.13.692v.063c1.368,1.2,1.629,2.894,1.629,4.655v7.234a1.651,1.651,0,0,0-.2.944l.261,2.516a2.953,2.953,0,0,1-.391,1.573,21.375,21.375,0,0,1,.261,3.523,16.486,16.486,0,0,1-.326,3.523c.391,1.132,1.3,1.2,2.215,1.2h.586a3.031,3.031,0,0,1,1.694.315c.782-.315,1.629-.44,2.085-1.069V36.165a1.784,1.784,0,0,1,.13-.566V29.183a.874.874,0,0,1-.13-.377c-.065-.377.261-.629.456-.944m-43,20.067a.748.748,0,0,1-.586-.629.226.226,0,0,1,.065-.189.245.245,0,0,1,.2-.063c.2,0,.326.189.326.44Zm2.28,1.132a.5.5,0,0,1-.326.063c-.261,0-.521-.063-.586-.252v-.126c0-.126.13-.189.261-.189.261,0,.652.126.652.377Zm5.277,1.132a.361.361,0,0,1-.391.315l-.261-.063c-.065-.063-.261-.063-.261-.126v-.126a.3.3,0,0,1,.326-.315h.065c.261.063.456,0,.521.315Zm-7.167-27.3c0,.189-.326.377-.586.5l-.2.063-.2-.063a.138.138,0,0,1-.13-.126c0-.189.391-.5.847-.5h.13a.138.138,0,0,1,.13.126M121.33,49.187a4.8,4.8,0,0,1-1.108.881,4.045,4.045,0,0,1-1.433.377.515.515,0,0,1-.456-.189c.065-.252,1.5-.063,3-1.069m4.5-13.147a1.876,1.876,0,0,1-.13.692,1.41,1.41,0,0,1-1.173.566c-.261,0-.391-.063-.456-.189v-.063c0-.189.521-.126,1.173-.5.521-.189.2-.377.586-.5Zm-3.714-13.462c-.847,0-.847-1.069-1.759-1.258-1.173-.252-2.215-.755-3.388-1.069l.586-.063a6.069,6.069,0,0,1,4.561,2.39Zm-1.3,10.254a8.364,8.364,0,0,0-1.759-.189l-4.235.252a7.43,7.43,0,0,1-2.411-.377,2.11,2.11,0,0,1-.717-1.636c0-1.007.456-2.076.521-3.019a4.621,4.621,0,0,1,3.323-3.082,2.765,2.765,0,0,1,.717-.063,4.421,4.421,0,0,1,3.518,2.328,44.987,44.987,0,0,1,1.042,5.787m5.343,7.549a4.664,4.664,0,0,0-1.3-.189c-.782,0-1.564.189-2.411.189a7.5,7.5,0,0,1-1.108-.126c-2.15.692-.391,3.334-2.15,4.529-1.042.252-1.824,1.069-2.8,1.069l-.456-.063c-3.583-1.132-4.43-4.026-4.626-7.36.521-.692-.521-1.2,2.085-1.258,4.1.44,7.949.252,11.923.44l.717-.5.13-2.957a6.736,6.736,0,0,0-.13-1.2c-.391-3.523,0-7.486-2.476-10.254a9.585,9.585,0,0,0-6.906-3.082,8.133,8.133,0,0,0-3.583.881c-1.759.944-3.583,1.384-4.691,3.145a20.335,20.335,0,0,0-2.541,10.694c0,1.2.065,2.39.13,3.649l.065.944c.13,4.026.261,8.052,4.691,10.38a13.205,13.205,0,0,0,6.32,1.573,10.663,10.663,0,0,0,4.886-1.069,8.051,8.051,0,0,0,4.17-6.668.986.986,0,0,0,.586-.944,9.6,9.6,0,0,1-.521-1.824M93.705,23.835c0,.063-.065.063-.13.063a.245.245,0,0,1-.2-.063v-.189c0-.063.065-.063.13-.063s.261.063.2.252ZM94.813,47.8a.365.365,0,0,1-.326.126c-.13,0-.2-.126-.2-.315s.065-.377.261-.377c.13,0,.261.189.261.377V47.8ZM81.848,49.061h0c0,.126-.261.189-.521.189s-.521-.063-.521-.126c0-.189.586-.252.586-.252a.883.883,0,0,1,.456.189m1.629.063a1,1,0,0,1-.456.063c-.13,0-.586-.063-.586-.126,0-.126.847-.252,1.3-.252.13,0,.261,0,.261.063Zm11.141-29.44a.23.23,0,0,0-.13.063l-.2.063c-.065,0,.13-.063-.521-.189-.13-.063-.391-.252-.391-.377,0-.063.065-.063.13-.063.326,0,1.173.315,1.108.5.065-.063.065,0,0,0m4.365,28.937c.065,0,.065.063,0,0,.065.252-.521.377-.912.377-.2,0-.326-.063-.326-.126v-.063c.13-.315.456-.377.782-.377a.991.991,0,0,1,.456.189M68.556,49h0c-.065.189-.13.252-.261.252L67.319,49l-.261-.189a1.164,1.164,0,0,1,.782-.252c.391,0,.717.126.717.44M67.514,20.25c0,.126-.521.063-.782.315-.2.189-.261.629-.391.629-.2,0-.261-.252-.261-.44,0-.692.586-.818.977-.818.261,0,.456.126.456.315m3.258-.377c0,.126-.13.126-.391.126h-.456a2.3,2.3,0,0,0-1.108.189h-.065a.063.063,0,0,1-.065-.063c0-.252.847-.755,1.368-.755a.721.721,0,0,1,.652.377Zm25.866.944c-.521-.44-.977-.44-.977-.629,0-.063.065-.063.2-.063.521,0,1.759.377,1.759,1.006a.874.874,0,0,1-.13.377ZM81,20.187c-.065.126-.2.126-.326.126a6.871,6.871,0,0,1-.912-.252c-.521,0-.912.189-1.3.189A5.624,5.624,0,0,1,77.548,20l.065-.063a2.756,2.756,0,0,1,1.238-.315h.13c.782,0,1.238.5,2.02.566M99.83,48.306a11.711,11.711,0,0,0,.065-1.51l-.652-9.562a18.25,18.25,0,0,1,.2-2.7,12.039,12.039,0,0,1-.2-2.642V25.974a.372.372,0,0,0,.2-.377,8.394,8.394,0,0,0-1.433-4.97,9.223,9.223,0,0,0-5.6-2.013,6.831,6.831,0,0,0-2.215.377c-2.476,0-3.453,3.4-5.733,3.4a3.376,3.376,0,0,1-.782-.126c-.261-1.258-1.5-2.139-2.476-2.894l-.13-.063a2.86,2.86,0,0,1-.717.126c-.977,0-1.824-.566-2.671-.566a12.328,12.328,0,0,0-5.864,2.516.725.725,0,0,1-.717-.818l.13-1.069c0-.44-.782-.5-1.433-.5H69.4A7.525,7.525,0,0,0,65.494,20a11.229,11.229,0,0,0-.065,1.447,13,13,0,0,0,.391,3.145,15.233,15.233,0,0,0-.2,2.328v4.089a4.012,4.012,0,0,1-.065.881V44.595a3.214,3.214,0,0,1,.261,1.447l-.065,1.51V47.8a1.845,1.845,0,0,0,1.629,2.076.991.991,0,0,1,.912-.5c.456,0,.977.189,1.368.189l.586.063a1.482,1.482,0,0,0,1.368-.818V32.768A32.188,32.188,0,0,1,72.14,26.1c.782-2.076,4.1-2.831,4.886-2.831,2.932,0,3,5.032,3,8.052V44.846a8.97,8.97,0,0,1,.065,1.321,8.141,8.141,0,0,1-.065,1.258c.391.881,0,2.265,1.368,2.39a18.947,18.947,0,0,1,3.258-.252h1.042a4.989,4.989,0,0,0,.456-2.076,11.26,11.26,0,0,0-.391-2.642V28.868c.456-2.516,1.238-5.347,5.017-5.347,3.323,0,2.606,4.592,3.258,6.354l-.261,3.649a4.773,4.773,0,0,0,.261,1.636c-.065.692-.065,1.321-.065,2.013V43.84a14.964,14.964,0,0,1,.13,1.636,14.159,14.159,0,0,1-.261,2.39,1.305,1.305,0,0,1,.456.881l.065.126c.456,0,.456-.629.652-.629h.065c.2.063.2.189.261.315l-.261.692c0,.063.065.189.261.252a10.444,10.444,0,0,1,1.433-.063c1.173,0,2.411,0,3.062-1.132m-56.813-.377a.748.748,0,0,1-.586-.629.226.226,0,0,1,.065-.189.245.245,0,0,1,.2-.063c.2,0,.326.189.326.44Zm2.345,1.132a.5.5,0,0,1-.326.063c-.261,0-.521-.063-.586-.252v-.126c0-.126.13-.189.261-.189.261,0,.652.126.652.377Zm5.277,1.132a.361.361,0,0,1-.391.315l-.261-.063c-.065-.063-.261-.063-.261-.126v-.126a.3.3,0,0,1,.326-.315h.065c.261.063.456,0,.521.315Zm-7.232-27.3c0,.189-.326.377-.586.5l-.2.063-.2-.063a.138.138,0,0,1-.13-.126c0-.189.391-.5.847-.5h.13a.138.138,0,0,1,.13.126M54.483,49.187a4.8,4.8,0,0,1-1.108.881,4.045,4.045,0,0,1-1.433.377.515.515,0,0,1-.456-.189c.065-.252,1.433-.063,3-1.069m4.5-13.147a1.877,1.877,0,0,1-.13.692,1.41,1.41,0,0,1-1.173.566c-.261,0-.391-.063-.456-.189v-.063c0-.189.521-.126,1.173-.5.521-.189.2-.377.586-.5ZM55.265,22.577c-.847,0-.847-1.069-1.759-1.258-1.173-.252-2.15-.755-3.388-1.069l.586-.063a6.179,6.179,0,0,1,4.561,2.39Zm-1.3,10.254a8.365,8.365,0,0,0-1.759-.189l-4.235.252a7.429,7.429,0,0,1-2.411-.377,2.11,2.11,0,0,1-.717-1.636c0-1.007.456-2.076.521-3.019a4.621,4.621,0,0,1,3.323-3.082,2.765,2.765,0,0,1,.717-.063,4.421,4.421,0,0,1,3.518,2.328,44.993,44.993,0,0,1,1.042,5.787M59.3,40.38a4.664,4.664,0,0,0-1.3-.189c-.782,0-1.564.189-2.411.189a7.5,7.5,0,0,1-1.108-.126c-2.15.692-.391,3.334-2.15,4.529-1.042.252-1.824,1.069-2.8,1.069l-.456-.063c-3.583-1.132-4.43-4.026-4.626-7.36.521-.692-.521-1.2,2.085-1.258,4.1.44,7.949.252,11.923.44l.717-.5.13-2.957a6.737,6.737,0,0,0-.13-1.2c-.391-3.523,0-7.486-2.476-10.254a9.585,9.585,0,0,0-6.906-3.082,8.133,8.133,0,0,0-3.583.881c-1.759.944-3.583,1.384-4.691,3.145a20.335,20.335,0,0,0-2.541,10.694c0,1.2.065,2.39.13,3.649l.065.944c.13,4.026.261,8.052,4.691,10.38a13.205,13.205,0,0,0,6.32,1.573,10.662,10.662,0,0,0,4.886-1.069,8.051,8.051,0,0,0,4.17-6.668.986.986,0,0,0,.586-.944A9.6,9.6,0,0,1,59.3,40.38M16.76,46.041c0,.126,0,.315-.261.315-.2,0-.261-.126-.261-.315,0-.126.13-.189.326-.189a.2.2,0,0,1,.2.189m10.49,3.019a.617.617,0,0,1-.456.5h-.326A.062.062,0,0,1,26.4,49.5a1.1,1.1,0,0,1,.847-.44v-.126c.065,0,0,.063,0,.126M14.675,25.911a.5.5,0,0,1-.326.063.577.577,0,0,1-.521-.629c0-.189.065-.377.261-.377a.9.9,0,0,1,.652.692l.065-.063a.651.651,0,0,1-.13.315m14.073,1.761a.659.659,0,0,1,.13.377c0,.252-.13.566-.2.566a11.85,11.85,0,0,1-1.042-2.579.218.218,0,0,1,.065-.126l.065-.063c.2-.063.326,1.258.977,1.824m-1.955-7.36c.065.063.2.126.2.189s-.065.126-.2.126c-.586,0-2.15-1.132-3-1.132-1.824,0-4.039,1.132-4.821,1.132-.2,0-.326-.063-.326-.252,0-.5,1.759-.755,2.736-.755l.326-.063a23.4,23.4,0,0,1,2.541-.315,2.915,2.915,0,0,1,2.541,1.069M25.686,49.69c0,.566-1.3.566-2.15.566h-.2c-3.127,0-6.385-2.894-6.385-3.145a.234.234,0,0,1,.261-.252h.065c1.3,0,1.564,1.51,2.736,2.139,1.042.566,2.736,0,3.583.692a.507.507,0,0,0,.326.126c.456,0,1.042-.5,1.368-.5.13,0,.2.063.261.189Zm7.949-10.946a4.225,4.225,0,0,0-1.238-.189l-2.671.252a3.283,3.283,0,0,1-.782-.063,1.391,1.391,0,0,0-.717,1.384V41.26c0,2.013-2.085,3.019-3.649,3.837l-.717.252a5.122,5.122,0,0,1-4.561-2.7c-.13-1.384-.977-2.579-.977-4.026a3.191,3.191,0,0,1,.13-1.069,7.483,7.483,0,0,1-.2-2.076l.521-5.347c.521-2.328.717-6.165,4.756-6.165,3.127,0,4.756,3.837,4.756,5.41a4.452,4.452,0,0,0,.912.063c1.173,0,2.28-.315,3.323-.315a1.342,1.342,0,0,1,.847.252,9.94,9.94,0,0,0,.13-1.384c0-4.592-4.561-9.373-9.447-9.373a5.1,5.1,0,0,0-.977.063c-2.476,1.007-5.668-.126-6.971,2.831-.456.566-1.368.755-1.368,1.321a1.413,1.413,0,0,0,.2.566,3.34,3.34,0,0,1,2.085-1.51c-2.736,2.139-2.345,2.7-2.411,2.7s-.261-.189-.456-.377c-.13.315-.847.692-.847,1.2a.742.742,0,0,0,.261.5,41.992,41.992,0,0,0-1.238,8.052v2.453c.521,1.95-.261,4.026,1.5,5.347.2-.252.2-.5.391-.5.261,0,.456.189.456.315,0,.5-.717,1.069-.847,1.2l.912,1.321c0,.377-.521.377-.586.629a.571.571,0,0,0,.391.189l.521-.063a.685.685,0,0,1,.652.629c0,.252-.586.126-.586.44a.226.226,0,0,0,.065.189v.063c0,.377.391.5.586.755a3.1,3.1,0,0,0-.13.566c0,1.069,1.824.692,2.411,1.51,0,.881.521,1.069,1.108,1.069L20.734,50a5.267,5.267,0,0,0,3,.944c7.1-.063,9.708-6.731,9.9-12.2" transform="translate(-12.33 -12.261)" fill="#fff"/>
      </g>
    </g>
  </g>
</svg>
