<svg xmlns="http://www.w3.org/2000/svg" width="251.462" height="48.265" viewBox="0 0 251.462 48.265">
  <g id="Ebene_1" transform="translate(983.1 395.2)">
    <g id="Gruppe_11" data-name="Gruppe 11" transform="translate(-1028.1 -505.2)">
      <path id="Pfad_14" data-name="Pfad 14" d="M260.16,28.081c-.155,0-.773-.392-.773-.628,0-.078,0-.157.077-.157h.077c.155,0,.464.549.619.706Zm6.263,32.883c0,.078-.309.549-.541.549-.155,0-.387-.078-.387-.235,0-.078.232-.157.387-.157.232,0,.464-.235.541-.157ZM252.815,27.845c0-.078-.387-.078-.541-.078s-.155.235-.155.314a.207.207,0,0,0,.232.235c.155,0,.464-.392.464-.471m1.237-.314c0-.314-.541-.392-.773-.392a.269.269,0,0,0-.155.078l-.077.078c0,.157.619.471.541.392l.155.157a.608.608,0,0,0,.309-.314M258.846,64.1c.077.157-.851.549-1.624.549a1.111,1.111,0,0,1-1.083-.471V64.1c0-.078.077-.078.155-.078.309,0,.928.157,1.315.157a9.223,9.223,0,0,1,1.083-.235c.077,0,.155,0,.155.157m6.341-2.2c0,.549-2.4,1.727-4.176,2.119.773-.863.928-.942,1.237-.942h.387a2.626,2.626,0,0,0,.7-.078c.773-.157,1.315-1.413,1.7-1.413a.863.863,0,0,1,.155.314Zm4.176-24.8a10.579,10.579,0,0,0-3.944-7.691,9,9,0,0,0-5.567-2.433,4.076,4.076,0,0,0-1.933.392v-.157c0-.471-.309-.549-.7-.549h-.928c-.155.471-.464.628-.7.628-.464,0-1.005-.549-1.315-.549-.155,0-.232.157-.309.549,0,0,.387.235.464.471v.078c0,.157-.155.235-.387.235h-1.005a1.082,1.082,0,0,1-.928.471l-.928-.078a1,1,0,0,0-1.005.628c-1.237,1.02-.7,3.139-2.474,3.375-.541,1.805-1.7,3.3-1.7,5.258a3.875,3.875,0,0,0,.077.942c.928,5.1,6.109,8.554,10.362,10.595,1.547,1.57,4.021,1.805,4.717,4l.077.314a7.4,7.4,0,0,1,.387,1.884,1.955,1.955,0,0,1-.851,1.648,4.82,4.82,0,0,1-2.552.942,2.744,2.744,0,0,1-.851-.157,7.128,7.128,0,0,1-4.33-4.866,4.6,4.6,0,0,0-2.938-.863l-2.01.078a9.383,9.383,0,0,1-1.547-.157,1.531,1.531,0,0,0-1.315,1.57,1.354,1.354,0,0,0,.077.549c.773,2.668,1.469,6.121,3.866,7.691h.077l.7-.392c.077,0,.077.078.077.157v.078c0,2.119,2.629,1.805,3.866,2.9a23.822,23.822,0,0,0,3.325.314,13.525,13.525,0,0,0,9.9-3.767,24.467,24.467,0,0,1,1.624-3.532,1.869,1.869,0,0,0,.155-.628l-.077-1.177a.958.958,0,0,1,.232-.785,17.89,17.89,0,0,0-.619-4.709c-1.315-3.924-4.717-5.1-7.346-7.456a26.234,26.234,0,0,1-6.65-4.081l-.232-.235-.232-.157a2.32,2.32,0,0,1-.155-.706c0-.706.387-1.491.387-2.276a2.115,2.115,0,0,0-.232-.942,4.207,4.207,0,0,1,3.557-2.354,2.7,2.7,0,0,1,1.083.235c2.01.706,4.33,2.433,4.33,4.944V37.5c.851.078,1.7.157,2.552.157.619,0,1.392-.078,2.242-.157h1.392v-.392ZM219.1,28.63h-.077c0,.392-.232.471-.464.471a1.4,1.4,0,0,1-.851-.314v-.078c0-.157.464-.314.851-.314.309,0,.541.078.541.235m17.012.549a2.63,2.63,0,0,1-1.546.314h-.541a.719.719,0,0,1,.7-.549Zm2.861.628-.387-.628-.851.471a.5.5,0,0,1-.387-.471l.077-.314c-1.237-.549-2.784-.392-4.1-.549-.309.157-.387.235-.387.392l.387.706c0,.157-.077.235-.309.392-.077.078-.155.157-.232.157-.309,0-.232-.706-.541-.863l-.773.392a.291.291,0,0,0-.077.235c0,.314.387.549.464.785a9.784,9.784,0,0,0-.155,2.119,46.313,46.313,0,0,0,.464,5.023v8.711a71.206,71.206,0,0,1-.619,10.673c-1.237,2.433-3.712,2.511-6.031,2.511A5.1,5.1,0,0,1,222.5,55V38.911c0-2.276,0-4.473.077-6.828a14.846,14.846,0,0,0,.309-1.962,1.31,1.31,0,0,0-.387-1.02,1.438,1.438,0,0,1-.7.314c-.155-.078-.155-.157-.155-.314a2.232,2.232,0,0,1,.309-.863,1.917,1.917,0,0,0-1.469-.392,1.79,1.79,0,0,1-.928-.157c-.928.628-2.629-.235-2.706,1.1l-1.005.078v.706c0,.314,0,.628.309.706a.754.754,0,0,1,.387.706l-.387,1.648a.946.946,0,0,1,.619.785c0,.628-.928,1.334-.928,2.2,0,.078.077.157.077.314v.314c0,.863-.387,1.805-.387,2.747a2.5,2.5,0,0,0,.619,1.727,3.117,3.117,0,0,0-.309,1.413,7.837,7.837,0,0,0,.851,2.9,15.738,15.738,0,0,0-.464,2.04,1.523,1.523,0,0,0,.309.942v7.377a6.027,6.027,0,0,0-.077,1.177,8.677,8.677,0,0,0,.232,2.04c0,2.511,2.01,3.689,3.016,5.729l3.17.628a1.8,1.8,0,0,0,1.315.549c.619,0,1.237-.235,1.933-.235a2.352,2.352,0,0,1,1.005.235c.464-.078.464-.549.464-1.1.309-.314.541-.706.928-.706a1.3,1.3,0,0,1,.387.157l-.232.706h.155c.773,0,1.16-.706,1.778-1.334v-.628c0-.157,0-.235.155-.235.464,0,.928-.549,1.315-.549a.583.583,0,0,1,.309.157,1.551,1.551,0,0,1,.077.628l-.077,1.177a2.144,2.144,0,0,0,.619,1.57,2.745,2.745,0,0,0,.851.314.424.424,0,0,0,.387-.235l-.309-.314v-.157c0-.078,0-.157.077-.157h.232c.077,0,.155,0,.232.157.077.078.155.078.155.157s-.077.157-.155.235l1.933.235a3,3,0,0,1,1.856-.785,2.687,2.687,0,0,0,.773-2.119,10.763,10.763,0,0,0-.309-2.276c-.155-3.924-.232-7.848-.232-11.85-.155-6.2.077-12.4.464-18.757M200.929,64.653h0c-.232.078-.619-.078-.619-.235,0-.078.155-.078.232-.078.232,0,.309.157.387.314m.928-45.989a.41.41,0,0,1,.155.314c0,.157-.232.314-.387.314s-.232-.157-.232-.314a.5.5,0,0,1,.387-.392.076.076,0,0,1,.077.078m-3.866,43.713c-.309,0-.619-.628-.619-.942,0-.078.155-.157.232-.157.155,0,.464,1.1.387,1.1Zm10.594-32.334c.155,0,.232.157.232.392,0,.314-.155.785-.309.785a2.207,2.207,0,0,1-.309-.942c0-.235,0-.314.155-.314.077,0,.232,0,.232.078m.928,0a1.865,1.865,0,0,0-2.088-1.648l-2.629.235a2.254,2.254,0,0,1-2.32-1.413l.464-8.24c-.077-.785-.928-.863-1.469-1.177-.773,1.648-2.474,1.491-3.712,2.276-.7.392-.541,1.57-1.315,1.57-.077,0-.155-.078-.309-.078a10.087,10.087,0,0,1,.309,2.668v1.256a8.4,8.4,0,0,0,.232,2.433,1.828,1.828,0,0,1-1.933,1.177l-2.242-.235-.464.078c-.309.628-1.315,1.02-1.315,1.648a1.066,1.066,0,0,0,.387.785,4.371,4.371,0,0,0-.232,1.256l5.413,3.218V44.4a12.905,12.905,0,0,1,.077,1.727c0,2.982-.7,6.121-.7,9.5,0,5.964,2.706,10.281,8.66,10.281,1.315,0,4.1,0,4.1-.785-.155-.392-1.315-.157-1.315-.549,0-.157.309-.235.619-.235a1.358,1.358,0,0,1,1.315.785,2.654,2.654,0,0,0,.232-1.177c0-2.433-.928-4.787-2.4-4.787l-2.32.235c-2.242,0-2.706-3.061-2.706-4.866,0-1.884.387-3.846.464-5.494a4.122,4.122,0,0,1-.387-1.884c0-1.57.619-2.982.619-4.473a6.966,6.966,0,0,0-.155-1.256,5.916,5.916,0,0,0,.232-2.04V37.734c0-1.413.309-3.924,2.706-3.924l2.4.706h.232c1.392-1.02,1.237-2.9,1.547-4.473m-27.141,3.61c-.387,0-.619-.628-.619-1.02,0-.157,0-.314.155-.392h.077c.387,0,.619.628.619,1.02,0,.235-.077.392-.232.392m-16.393-4.866a2.23,2.23,0,0,1-.7.157,2.488,2.488,0,0,1-1.005-.235v-.157a.285.285,0,0,1,.309-.314c.232,0,.7.235,1.083.235l.309-.078a.168.168,0,0,1,.155.157c0,.078-.077.235-.155.235m10.052-1.02c0,.235-.464.392-.7.392-.309,0-.619.235-.851.235a.168.168,0,0,1-.155-.157c-.077-.157.619-.863,1.16-.863.232,0,.387.078.541.392Zm-8.892,36.258a.291.291,0,0,1,.077.235c0,.314-.464.549-.773.549h-.077a4.12,4.12,0,0,1-.773-.235c.464-.157.7-.863,1.083-.863a.573.573,0,0,1,.464.314m-5.645-27.782c.077-.157.232.392.232,1.02,0,.706-.155,1.491-.773,1.648a10.91,10.91,0,0,1,.541-2.668m17.4-7.534c-.773,0-1.16-.392-1.7-.392a.968.968,0,0,0-.464.078.72.72,0,0,1-.232-.392c0-.157.155-.314.309-.471h.232a2.958,2.958,0,0,1,1.856.863Zm5.877,8.554a2.894,2.894,0,0,1-.387-1.648l.077-1.491a2.524,2.524,0,0,0-1.005-2.276v-.235c0-2.04-2.552-2.354-3.48-4.159a4.918,4.918,0,0,0-1.547-.235l-1.778.078a2.111,2.111,0,0,1-.7-.078,7.391,7.391,0,0,0-1.778-.235c-2.706,0-4.64,1.648-7.037,2.119-.7-.157-.232-1.177-.7-1.334-1.005-.078-2.165-.314-3.17-.314a3.709,3.709,0,0,0-2.474.706,16.815,16.815,0,0,0-.155,2.04,3.164,3.164,0,0,0,.387,1.727v.235c0,.706-.309,1.334-.309,1.884a1.32,1.32,0,0,0,.309.863,7.244,7.244,0,0,0-.619,3.453c0,2.276.309,4.787.309,6.514,0,.863-.077,1.491-.309,1.648.155,3.453.309,6.357.309,9.575v1.57a6.144,6.144,0,0,1,.155,1.177l-.387,3.61a2.507,2.507,0,0,0,1.315,2.433,2.913,2.913,0,0,0,1.16.392.871.871,0,0,0,.619-.235,6.235,6.235,0,0,0,2.088.471,2.747,2.747,0,0,0,1.856-.706l.387-1.884a1.191,1.191,0,0,0-.309-.863V51.154a3.382,3.382,0,0,1-.155-.863l.232-2.354a2.449,2.449,0,0,0-.387-1.413c.077-.785.155-1.57.155-2.354V39.7a7.59,7.59,0,0,1,1.933-5.572c.928-.785,2.01-1.884,3.325-1.884a1.936,1.936,0,0,1,.928.157h.077c.464,0,.464-.785.851-.785a1.3,1.3,0,0,1,.387.157.435.435,0,0,1,.155.392l-.155.863V33.1c1.624,1.491,1.933,3.61,1.933,5.808v9.025a2.149,2.149,0,0,0-.232,1.177l.309,3.139a3.836,3.836,0,0,1-.464,1.962,28.007,28.007,0,0,1,.309,4.395A21.588,21.588,0,0,1,176.417,63c.464,1.413,1.547,1.491,2.629,1.491h.7a3.447,3.447,0,0,1,2.01.392c.928-.392,1.933-.549,2.474-1.334V47.622a2.321,2.321,0,0,1,.155-.706v-8a1.127,1.127,0,0,1-.155-.471c-.077-.471.309-.785.541-1.177M133.733,62.3c-.309,0-.7-.471-.7-.785a.291.291,0,0,1,.077-.235.281.281,0,0,1,.232-.078c.232,0,.387.235.387.549V62.3Zm2.706,1.413a.573.573,0,0,1-.387.078c-.309,0-.619-.078-.7-.314v-.157c0-.157.155-.235.309-.235.309,0,.773.157.773.471Zm6.263,1.413a.435.435,0,0,1-.464.392l-.309-.078c-.077-.078-.309-.078-.309-.157v-.157a.368.368,0,0,1,.387-.392h.077c.309.078.541,0,.619.392ZM134.2,31.063c0,.235-.387.471-.7.628l-.232.078-.232-.078a.168.168,0,0,1-.155-.157c0-.235.464-.628,1.005-.628h.155a.168.168,0,0,1,.155.157m13.068,32.8a5.763,5.763,0,0,1-1.315,1.1,4.616,4.616,0,0,1-1.7.471.6.6,0,0,1-.541-.235c.077-.314,1.778-.078,3.557-1.334m5.335-16.4a2.449,2.449,0,0,1-.155.863,1.646,1.646,0,0,1-1.392.706c-.309,0-.464-.078-.541-.235v-.078c0-.235.619-.157,1.392-.628.619-.235.232-.471.7-.628Zm-4.408-16.795c-1.005,0-1.005-1.334-2.088-1.57-1.392-.314-2.629-.942-4.021-1.334l.7-.078a7.1,7.1,0,0,1,5.413,2.982Zm-1.547,12.792a9.463,9.463,0,0,0-2.088-.235l-5.026.314a8.426,8.426,0,0,1-2.861-.471,2.7,2.7,0,0,1-.851-2.04c0-1.256.541-2.59.619-3.767a5.6,5.6,0,0,1,3.944-3.846,3.127,3.127,0,0,1,.851-.078c1.856,0,3.248,1.413,4.176,2.9a58.73,58.73,0,0,1,1.237,7.22m6.341,9.418a5.285,5.285,0,0,0-1.547-.235c-.928,0-1.856.235-2.861.235a8.49,8.49,0,0,1-1.315-.157c-2.552.863-.464,4.159-2.552,5.651-1.237.314-2.165,1.334-3.325,1.334l-.541-.078c-4.253-1.413-5.258-5.023-5.49-9.182.619-.863-.619-1.491,2.474-1.57,4.872.549,9.434.314,14.151.549l.851-.628.155-3.689a8.817,8.817,0,0,0-.155-1.491c-.464-4.395,0-9.339-2.938-12.792a11.134,11.134,0,0,0-8.2-3.846,9.275,9.275,0,0,0-4.253,1.1c-2.088,1.177-4.253,1.727-5.567,3.924-2.32,4.159-3.016,8.554-3.016,13.342,0,1.491.077,2.982.155,4.552l.077,1.177c.155,5.023.309,10.045,5.567,12.949a15.07,15.07,0,0,0,7.5,1.962,12.142,12.142,0,0,0,5.8-1.334,10.114,10.114,0,0,0,4.949-8.319,1.239,1.239,0,0,0,.7-1.177,12.452,12.452,0,0,1-.619-2.276M114.479,32.24c0,.078-.077.078-.155.078a.281.281,0,0,1-.232-.078V32c0-.078.077-.078.155-.078a.238.238,0,0,1,.232.314Zm1.315,29.9a.422.422,0,0,1-.387.157c-.155,0-.232-.157-.232-.392s.077-.471.309-.471c.155,0,.309.235.309.471q0,.118,0,.235Zm-15.388,1.57h0c0,.157-.309.235-.619.235s-.619-.078-.619-.157c0-.235.7-.314.7-.314a1.02,1.02,0,0,1,.541.235m1.933.078a1.131,1.131,0,0,1-.541.078c-.155,0-.7-.078-.7-.157,0-.157,1.005-.314,1.547-.314.155,0,.309,0,.309.078Zm13.223-36.729a.269.269,0,0,0-.155.078l-.232.078c-.077,0,.155-.078-.619-.235-.155-.078-.464-.314-.464-.471,0-.078.077-.078.155-.078.387,0,1.392.392,1.315.628.077-.078.077,0,0,0m5.181,36.1c.077,0,.077.078,0,0,.077.314-.619.471-1.083.471-.232,0-.387-.078-.387-.157V63.4c.155-.392.541-.471.928-.471a1.146,1.146,0,0,1,.541.235m-36.111.471h0c-.077.235-.155.314-.309.314l-1.16-.314-.309-.235a1.337,1.337,0,0,1,.928-.314c.464,0,.851.157.851.549M83.395,27.767c0,.157-.619.078-.928.392-.232.235-.309.785-.464.785-.232,0-.309-.314-.309-.549,0-.863.7-1.02,1.16-1.02.309,0,.541.157.541.392m3.866-.471c0,.157-.155.157-.464.157h-.541a2.607,2.607,0,0,0-1.315.235h-.077a.076.076,0,0,1-.077-.078c0-.314,1.005-.942,1.624-.942a.849.849,0,0,1,.773.471Zm30.7,1.177c-.619-.549-1.16-.549-1.16-.785,0-.078.077-.078.232-.078.619,0,2.088.471,2.088,1.256a1.127,1.127,0,0,1-.155.471ZM99.4,27.688c-.077.157-.232.157-.387.157a7.844,7.844,0,0,1-1.083-.314c-.619,0-1.083.235-1.547.235a6.423,6.423,0,0,1-1.083-.314l.077-.078a3.143,3.143,0,0,1,1.469-.392H97c.928,0,1.469.628,2.4.706m22.347,35.081a15.346,15.346,0,0,0,.077-1.884l-.773-11.929a23.913,23.913,0,0,1,.232-3.375,15.772,15.772,0,0,1-.232-3.3V34.909a.472.472,0,0,0,.232-.471,10.866,10.866,0,0,0-1.7-6.2,10.623,10.623,0,0,0-6.65-2.511,7.751,7.751,0,0,0-2.629.471c-2.938,0-4.1,4.238-6.8,4.238a3.829,3.829,0,0,1-.928-.157c-.309-1.57-1.778-2.668-2.938-3.61l-.155-.078a3.245,3.245,0,0,1-.851.157c-1.16,0-2.165-.706-3.17-.706-1.624,0-5.026,1.491-6.959,3.139a.892.892,0,0,1-.851-1.02l.155-1.334c0-.549-.928-.628-1.7-.628h-.464A8.6,8.6,0,0,0,81,27.453a14.72,14.72,0,0,0-.077,1.805,17,17,0,0,0,.464,3.924,19.956,19.956,0,0,0-.232,2.9v5.1a5.257,5.257,0,0,1-.077,1.1V58.139a4.19,4.19,0,0,1,.309,1.805l-.077,1.884v.314a2.282,2.282,0,0,0,1.933,2.59,1.164,1.164,0,0,1,1.083-.628c.541,0,1.16.235,1.624.235l.7.078a1.748,1.748,0,0,0,1.624-1.02V43.384a42.163,42.163,0,0,1,.619-8.319c.928-2.59,4.872-3.532,5.8-3.532,3.48,0,3.557,6.278,3.557,10.045V58.453a11.763,11.763,0,0,1,.077,1.648,10.675,10.675,0,0,1-.077,1.57c.464,1.1,0,2.825,1.624,2.982a21.416,21.416,0,0,1,3.866-.314h1.237a6.5,6.5,0,0,0,.541-2.59,14.715,14.715,0,0,0-.464-3.3V38.519c.541-3.139,1.469-6.671,5.954-6.671,3.944,0,3.093,5.729,3.866,7.926l-.309,4.552a6.232,6.232,0,0,0,.309,2.04c-.077.863-.077,1.648-.077,2.511V57.2a19.607,19.607,0,0,1,.155,2.04,18.531,18.531,0,0,1-.309,2.982,1.658,1.658,0,0,1,.541,1.1l.077.157c.541,0,.541-.785.773-.785h.077c.232.078.232.235.309.392l-.309.863c0,.078.077.235.309.314a11.8,11.8,0,0,1,1.7-.078c1.392,0,2.861,0,3.634-1.413M54.32,62.3c-.309,0-.7-.471-.7-.785a.291.291,0,0,1,.077-.235.281.281,0,0,1,.232-.078c.232,0,.387.235.387.549ZM57.1,63.711a.573.573,0,0,1-.387.078c-.309,0-.619-.078-.7-.314v-.157c0-.157.155-.235.309-.235.309,0,.773.157.773.471Zm6.263,1.413a.435.435,0,0,1-.464.392l-.309-.078c-.077-.078-.309-.078-.309-.157v-.157a.368.368,0,0,1,.387-.392h.077c.309.078.541,0,.619.392Zm-8.583-34.06c0,.235-.387.471-.7.628l-.232.078-.232-.078a.168.168,0,0,1-.155-.157c0-.235.464-.628,1.005-.628h.155a.168.168,0,0,1,.155.157m13.145,32.8a5.763,5.763,0,0,1-1.315,1.1,4.616,4.616,0,0,1-1.7.471.6.6,0,0,1-.541-.235c.077-.314,1.7-.078,3.557-1.334m5.335-16.4a2.449,2.449,0,0,1-.155.863,1.645,1.645,0,0,1-1.392.706c-.309,0-.464-.078-.541-.235v-.078c0-.235.619-.157,1.392-.628.619-.235.232-.471.7-.628ZM68.857,30.671c-1.005,0-1.005-1.334-2.088-1.57-1.392-.314-2.552-.942-4.021-1.334l.7-.078a7.231,7.231,0,0,1,5.413,2.982ZM67.311,43.463a9.463,9.463,0,0,0-2.088-.235l-5.026.314a8.426,8.426,0,0,1-2.861-.471,2.7,2.7,0,0,1-.851-2.04c0-1.256.541-2.59.619-3.767a5.6,5.6,0,0,1,3.944-3.846,3.127,3.127,0,0,1,.851-.078c1.856,0,3.248,1.413,4.176,2.9a58.731,58.731,0,0,1,1.237,7.22m6.341,9.418a5.285,5.285,0,0,0-1.547-.235c-.928,0-1.856.235-2.861.235a8.489,8.489,0,0,1-1.315-.157c-2.552.863-.464,4.159-2.552,5.651-1.237.314-2.165,1.334-3.325,1.334l-.541-.078c-4.253-1.413-5.258-5.023-5.49-9.182.619-.863-.619-1.491,2.474-1.57,4.871.549,9.434.314,14.151.549L73.5,48.8l.155-3.689A8.818,8.818,0,0,0,73.5,43.62c-.464-4.395,0-9.339-2.938-12.792a11.134,11.134,0,0,0-8.2-3.846,9.275,9.275,0,0,0-4.253,1.1c-2.088,1.177-4.253,1.727-5.567,3.924-2.32,4.159-3.016,8.554-3.016,13.342,0,1.491.077,2.982.155,4.552l.077,1.177c.155,5.023.309,10.045,5.567,12.949a15.07,15.07,0,0,0,7.5,1.962,12.142,12.142,0,0,0,5.8-1.334,10.114,10.114,0,0,0,4.949-8.319,1.239,1.239,0,0,0,.7-1.177,12.451,12.451,0,0,1-.619-2.276M23.158,59.944c0,.157,0,.392-.309.392-.232,0-.309-.157-.309-.392,0-.157.155-.235.387-.235a.249.249,0,0,1,.232.235m12.449,3.767a.757.757,0,0,1-.541.628H34.68a.077.077,0,0,1-.077-.078,1.287,1.287,0,0,1,1.005-.549v-.157c.077,0,0,.078,0,.157M20.684,34.83a.573.573,0,0,1-.387.078.71.71,0,0,1-.619-.785c0-.235.077-.471.309-.471.309,0,.773.549.773.863l.077-.078a.836.836,0,0,1-.155.392m16.7,2.2a.85.85,0,0,1,.155.471c0,.314-.155.706-.232.706a15.229,15.229,0,0,1-1.237-3.218.275.275,0,0,1,.077-.157l.077-.078c.232-.078.387,1.57,1.16,2.276m-2.32-9.182c.077.078.232.157.232.235s-.077.157-.232.157c-.7,0-2.552-1.413-3.557-1.413-2.165,0-4.794,1.413-5.722,1.413-.232,0-.387-.078-.387-.314,0-.628,2.088-.942,3.248-.942l.387-.078a26.484,26.484,0,0,1,3.016-.392,3.38,3.38,0,0,1,3.016,1.334M33.752,64.5c0,.706-1.547.706-2.552.706h-.232c-3.712,0-7.578-3.61-7.578-3.924a.286.286,0,0,1,.309-.314h.077c1.547,0,1.856,1.884,3.248,2.668,1.237.706,3.248,0,4.253.863a.586.586,0,0,0,.387.157c.541,0,1.237-.628,1.624-.628.155,0,.232.078.309.235ZM43.185,50.84a4.79,4.79,0,0,0-1.469-.235l-3.17.314a3.711,3.711,0,0,1-.928-.078,1.761,1.761,0,0,0-.851,1.727v1.413c0,2.511-2.474,3.767-4.33,4.787l-.851.314a6.043,6.043,0,0,1-5.413-3.375c-.155-1.727-1.16-3.218-1.16-5.023a4.174,4.174,0,0,1,.155-1.334,9.8,9.8,0,0,1-.232-2.59l.619-6.671c.619-2.9.851-7.691,5.645-7.691,3.712,0,5.645,4.787,5.645,6.749a5.032,5.032,0,0,0,1.083.078c1.392,0,2.706-.392,3.944-.392a1.538,1.538,0,0,1,1.005.314,13.02,13.02,0,0,0,.155-1.727c0-5.729-5.413-11.694-11.212-11.694a5.768,5.768,0,0,0-1.16.078c-2.938,1.256-6.727-.157-8.274,3.532-.541.706-1.624.942-1.624,1.648a1.826,1.826,0,0,0,.232.706,3.981,3.981,0,0,1,2.474-1.884c-3.248,2.668-2.784,3.375-2.861,3.375s-.309-.235-.541-.471c-.155.392-1.005.863-1.005,1.491a.944.944,0,0,0,.309.628c-.541,2.982-1.469,6.435-1.469,10.045v3.061c.619,2.433-.309,5.023,1.778,6.671.232-.314.232-.628.464-.628a.529.529,0,0,1,.541.392c0,.628-.851,1.334-1.005,1.491l1.083,1.648c0,.471-.619.471-.7.785a.665.665,0,0,0,.464.235l.619-.078a.835.835,0,0,1,.773.785c0,.314-.7.157-.7.549a.291.291,0,0,0,.077.235V60.1c0,.471.464.628.7.942a4.032,4.032,0,0,0-.155.706c0,1.334,2.165.863,2.861,1.884,0,1.1.619,1.334,1.315,1.334l1.856-.078a6.042,6.042,0,0,0,3.557,1.177c8.428-.078,11.521-8.4,11.753-15.225" transform="translate(27.1 92.2)" fill="#121212"/>
    </g>
  </g>
</svg>
