<svg xmlns="http://www.w3.org/2000/svg" width="164.566" height="122.838" viewBox="0 0 164.566 122.838">
  <g id="triangles" transform="translate(84.949 -27.789) rotate(48)">
    <g id="Pfad_6" data-name="Pfad 6" transform="translate(37.393 0) rotate(30)" fill="none">
      <path d="M46.084,0,85.725,65.349,0,70.857Z" stroke="none"/>
      <path d="M 46.03984832763672 2.819244384765625 L 2.887603759765625 69.16815185546875 L 83.15882873535156 64.01061248779297 L 46.03984832763672 2.819244384765625 M 46.08408737182617 0 L 85.72499847412109 65.34883117675781 L 0 70.85678100585938 L 46.08408737182617 0 Z" stroke="none" fill="#ffdc65"/>
    </g>
    <g id="Polygon_2" data-name="Polygon 2" transform="translate(54.462 15.61)" fill="none">
      <path d="M40.93,0l40.93,46.952H0Z" stroke="none"/>
      <path d="M 40.93025207519531 2.282730102539062 L 3.297538757324219 45.45244979858398 L 78.56295013427734 45.45244979858398 L 40.93025207519531 2.282730102539062 M 40.93025207519531 0 L 81.86049652099609 46.95244979858398 L -7.62939453125e-06 46.95244979858398 L 40.93025207519531 0 Z" stroke="none" fill="#ffdc65"/>
    </g>
    <g id="Polygon_10" data-name="Polygon 10" transform="matrix(0.839, -0.545, 0.545, 0.839, 0, 90.993)" fill="none">
      <path d="M48.43,0l48.43,66.952H0Z" stroke="none"/>
      <path d="M 48.43025207519531 2.559310913085938 L 2.936309814453125 65.45245361328125 L 93.9241943359375 65.45245361328125 L 48.43025207519531 2.559310913085938 M 48.43025207519531 0 L 96.86050415039062 66.95245361328125 L 0 66.95245361328125 L 48.43025207519531 0 Z" stroke="none" fill="#ffdc65"/>
    </g>
  </g>
</svg>
