<svg xmlns="http://www.w3.org/2000/svg" width="127.468" height="138.051" viewBox="0 0 127.468 138.051">
  <g id="triangles" transform="matrix(0.951, -0.309, 0.309, 0.951, -19.647, 24.673)">
    <g id="Pfad_6" data-name="Pfad 6" transform="translate(35.231 2.822) rotate(30)" fill="none">
      <path d="M46.084,0,85.725,65.349,0,70.857Z" stroke="none"/>
      <path d="M 46.05459213256836 1.879486083984375 L 1.925056457519531 69.73103332519531 L 84.01421356201172 64.45668792724609 L 46.05459213256836 1.879486083984375 M 46.08408737182617 0 L 85.72499084472656 65.34882354736328 L -7.62939453125e-06 70.85678100585938 L 46.08408737182617 0 Z" stroke="none" fill="#ffdc65"/>
    </g>
    <g id="Polygon_2" data-name="Polygon 2" transform="translate(51.879 17.512)" fill="none">
      <path d="M40.93,0l40.93,46.952H0Z" stroke="none"/>
      <path d="M 40.93025207519531 1.521808624267578 L 2.198356628417969 45.95244598388672 L 79.66214752197266 45.95244598388672 L 40.93025207519531 1.521808624267578 M 40.93025207519531 3.814697265625e-06 L 81.86050415039062 46.95244598388672 L 0 46.95244598388672 L 40.93025207519531 3.814697265625e-06 Z" stroke="none" fill="#ffdc65"/>
    </g>
    <g id="Polygon_11" data-name="Polygon 11" transform="matrix(0.719, 0.695, -0.695, 0.719, 60.396, 38.823)" fill="none">
      <path d="M42.93,0l42.93,63.952H0Z" stroke="none"/>
      <path d="M 42.93025207519531 1.794212341308594 L 1.875701904296875 62.95244979858398 L 83.98478698730469 62.95244979858398 L 42.93025207519531 1.794212341308594 M 42.93025207519531 3.814697265625e-06 L 85.86049652099609 63.95244979858398 L -7.62939453125e-06 63.95244979858398 L 42.93025207519531 3.814697265625e-06 Z" stroke="none" fill="#ffdc65"/>
    </g>
  </g>
</svg>
