<svg xmlns="http://www.w3.org/2000/svg" width="22.969" height="16.15" viewBox="0 0 22.969 16.15">
  <path id="Icon_awesome-youtube" data-name="Icon awesome-youtube" d="M23.539,7.027a2.886,2.886,0,0,0-2.031-2.044C19.717,4.5,12.534,4.5,12.534,4.5s-7.182,0-8.974.483A2.886,2.886,0,0,0,1.53,7.027a30.276,30.276,0,0,0-.48,5.564,30.276,30.276,0,0,0,.48,5.564,2.843,2.843,0,0,0,2.031,2.011c1.791.483,8.974.483,8.974.483s7.182,0,8.974-.483a2.843,2.843,0,0,0,2.031-2.011,30.276,30.276,0,0,0,.48-5.564,30.276,30.276,0,0,0-.48-5.564ZM10.185,16.006V9.176l6,3.415-6,3.415Z" transform="translate(-1.05 -4.5)" fill="#fff"/>
</svg>
