<svg xmlns="http://www.w3.org/2000/svg" width="433.652" height="404.073" viewBox="0 0 433.652 404.073">
  <g id="triangles" transform="matrix(0.719, -0.695, 0.695, 0.719, -138.757, 186.72)">
    <g id="Pfad_6" data-name="Pfad 6" transform="translate(-1.003 208.04) rotate(-30)" fill="#fff">
      <path d="M 116.9464111328125 241.3202667236328 L 1.244762301445007 0.8571851849555969 L 217.5663909912109 19.02457046508789 L 116.9464111328125 241.3202667236328 Z" stroke="none"/>
      <path d="M 116.9256362915039 239.54736328125 L 216.4450836181641 19.68304443359375 L 2.489485263824463 1.71436595916748 L 116.9256362915039 239.54736328125 M 116.9671630859375 243.0931854248047 L 5.432129000837449e-06 -1.037597712638672e-06 L 218.6876983642578 18.36609268188477 L 116.9671630859375 243.0931854248047 Z" stroke="none" fill="#ffdc65"/>
    </g>
    <g id="Pfad_18" data-name="Pfad 18" transform="translate(447.297 359.313) rotate(180)" fill="#fff">
      <path d="M 0.9047207832336426 161.1441955566406 L 145.4512939453125 0.4247285127639771 L 288.4443664550781 159.7652893066406 L 0.9047207832336426 161.1441955566406 Z" stroke="none"/>
      <path d="M 145.45068359375 1.546981811523438 L 2.595245361328125 160.3860321044922 L 286.770751953125 159.0233001708984 L 145.45068359375 1.546981811523438 M 145.4518890380859 -0.6975250244140625 L 290.117919921875 160.5072784423828 L -0.785888671875 161.9022827148438 L 145.4518890380859 -0.6975250244140625 Z" stroke="none" fill="#ffdc65"/>
    </g>
    <g id="Pfad_19" data-name="Pfad 19" transform="matrix(-0.839, -0.545, 0.545, -0.839, 325.063, 285.484)" fill="#fff">
      <path d="M 1.145539045333862 168.5521087646484 L 133.1852264404297 0.8943817615509033 L 264.4289245605469 167.9221954345703 L 1.145539045333862 168.5521087646484 Z" stroke="none"/>
      <path d="M 133.1845703125 2.107421875 L 2.693817138671875 167.7983856201172 L 262.8886108398438 167.1758728027344 L 133.1845703125 2.107421875 M 133.1859130859375 -0.31866455078125 L 265.9691162109375 168.6685180664062 L -0.4027099609375 169.3058013916016 L 133.1859130859375 -0.31866455078125 Z" stroke="none" fill="#ffdc65"/>
    </g>
  </g>
</svg>
